<?xml version="1.0" encoding="UTF-8"?>
<svg xmlns="http://www.w3.org/2000/svg" xmlns:xlink="http://www.w3.org/1999/xlink" width="97pt" height="97pt" viewBox="0 0 97 97" version="1.1">
<g id="surface1">
<path style=" stroke:none;fill-rule:nonzero;fill:rgb(0%,67.45098%,70.196078%);fill-opacity:1;" d="M 66.761719 79.140625 L 30.238281 79.140625 C 25.3125 79.140625 21.308594 83.148438 21.308594 88.070312 C 21.308594 92.992188 25.3125 97 30.238281 97 L 66.761719 97 C 71.6875 97 75.691406 92.992188 75.691406 88.070312 C 75.691406 83.148438 71.6875 79.140625 66.761719 79.140625 Z M 66.761719 79.140625 "/>
<path style=" stroke:none;fill-rule:nonzero;fill:rgb(0%,50.588235%,52.54902%);fill-opacity:1;" d="M 66.761719 97 C 71.6875 97 75.691406 92.992188 75.691406 88.070312 C 75.691406 83.148438 71.6875 79.140625 66.761719 79.140625 L 48.503906 79.140625 L 48.503906 97 Z M 66.761719 97 "/>
<path style=" stroke:none;fill-rule:nonzero;fill:rgb(65.882353%,92.156863%,98.039216%);fill-opacity:1;" d="M 57.632812 66.964844 L 39.367188 66.964844 C 37.800781 66.964844 36.527344 68.238281 36.527344 69.808594 L 36.527344 81.984375 C 36.527344 83.550781 37.800781 84.824219 39.367188 84.824219 L 57.632812 84.824219 C 59.199219 84.824219 60.472656 83.550781 60.472656 81.984375 L 60.472656 69.808594 C 60.472656 68.238281 59.199219 66.964844 57.632812 66.964844 Z M 57.632812 66.964844 "/>
<path style=" stroke:none;fill-rule:nonzero;fill:rgb(46.27451%,88.627451%,97.254902%);fill-opacity:1;" d="M 57.632812 66.964844 L 48.503906 66.964844 L 48.503906 84.824219 L 57.632812 84.824219 C 59.199219 84.824219 60.472656 83.550781 60.472656 81.984375 L 60.472656 69.808594 C 60.472656 68.238281 59.199219 66.964844 57.632812 66.964844 Z M 57.632812 66.964844 "/>
<path style=" stroke:none;fill-rule:nonzero;fill:rgb(99.607843%,95.686275%,96.078431%);fill-opacity:1;" d="M 2.84375 10.449219 C 2.84375 6.265625 6.265625 2.84375 10.453125 2.84375 L 86.550781 2.84375 C 90.734375 2.84375 94.160156 6.265625 94.160156 10.449219 L 94.160156 62.199219 C 94.160156 66.382812 90.734375 69.808594 86.550781 69.808594 L 10.453125 69.808594 C 6.265625 69.808594 2.84375 66.382812 2.84375 62.199219 Z M 2.84375 10.449219 "/>
<path style=" stroke:none;fill-rule:nonzero;fill:rgb(83.529412%,92.941176%,92.941176%);fill-opacity:1;" d="M 86.550781 2.84375 L 48.503906 2.84375 L 48.503906 69.808594 L 86.550781 69.808594 C 90.734375 69.808594 94.15625 66.382812 94.15625 62.199219 L 94.15625 10.449219 C 94.15625 6.265625 90.734375 2.84375 86.550781 2.84375 Z M 86.550781 2.84375 "/>
<path style=" stroke:none;fill-rule:nonzero;fill:rgb(0%,67.45098%,70.196078%);fill-opacity:1;" d="M 86.550781 72.648438 L 10.453125 72.648438 C 4.6875 72.648438 0 67.960938 0 62.199219 L 0 10.449219 C 0 4.6875 4.6875 0 10.453125 0 L 86.550781 0 C 92.3125 0 97 4.6875 97 10.449219 L 97 62.199219 C 97 67.960938 92.3125 72.648438 86.550781 72.648438 Z M 10.453125 5.683594 C 7.824219 5.683594 5.683594 7.824219 5.683594 10.449219 L 5.683594 62.199219 C 5.683594 64.828125 7.824219 66.964844 10.453125 66.964844 L 86.550781 66.964844 C 89.175781 66.964844 91.316406 64.828125 91.316406 62.199219 L 91.316406 10.449219 C 91.316406 7.824219 89.175781 5.683594 86.550781 5.683594 Z M 10.453125 5.683594 "/>
<path style=" stroke:none;fill-rule:nonzero;fill:rgb(0%,50.588235%,52.54902%);fill-opacity:1;" d="M 86.550781 0 L 48.503906 0 L 48.503906 5.683594 L 86.550781 5.683594 C 89.175781 5.683594 91.316406 7.824219 91.316406 10.449219 L 91.316406 62.199219 C 91.316406 64.828125 89.175781 66.964844 86.550781 66.964844 L 48.503906 66.964844 L 48.503906 72.648438 L 86.550781 72.648438 C 92.3125 72.648438 97 67.960938 97 62.199219 L 97 10.449219 C 97 4.6875 92.3125 0 86.550781 0 Z M 86.550781 0 "/>
<path style=" stroke:none;fill-rule:nonzero;fill:rgb(40%,20%,14.509804%);fill-opacity:1;" d="M 42.855469 26.445312 C 42.582031 25.535156 41.453125 25.109375 40.296875 25.109375 C 39.171875 25.109375 38.042969 25.535156 37.769531 26.445312 L 31.894531 45.59375 C 31.863281 45.714844 31.835938 45.835938 31.835938 45.898438 C 31.835938 46.871094 33.265625 47.542969 34.332031 47.542969 C 35 47.542969 35.519531 47.328125 35.667969 46.75 L 36.828125 42.703125 L 43.796875 42.703125 L 44.953125 46.75 C 45.105469 47.328125 45.625 47.542969 46.292969 47.542969 C 47.359375 47.542969 48.789062 46.839844 48.789062 45.898438 C 48.789062 45.808594 48.757812 45.714844 48.730469 45.59375 Z M 37.648438 39.597656 L 40.296875 30.25 L 42.945312 39.597656 Z M 37.648438 39.597656 "/>
<path style=" stroke:none;fill-rule:nonzero;fill:rgb(23.529412%,10.588235%,7.45098%);fill-opacity:1;" d="M 58.011719 25.289062 L 52.625 25.289062 C 51.589844 25.289062 50.890625 25.867188 50.890625 26.507812 L 50.890625 46.324219 C 50.890625 46.964844 51.589844 47.542969 52.625 47.542969 L 58.011719 47.542969 C 62.03125 47.542969 65.164062 45.65625 65.164062 40.570312 L 65.164062 32.261719 C 65.164062 27.175781 62.03125 25.289062 58.011719 25.289062 Z M 61.207031 40.570312 C 61.207031 42.945312 60.019531 44.070312 58.011719 44.070312 L 54.847656 44.070312 L 54.847656 28.761719 L 58.011719 28.761719 C 60.019531 28.761719 61.207031 29.886719 61.207031 32.261719 Z M 61.207031 40.570312 "/>
</g>
</svg>
